<svg xmlns="http://www.w3.org/2000/svg" xml:space="preserve" width="655.359" height="655.359" style="shape-rendering:geometricPrecision;text-rendering:geometricPrecision;image-rendering:optimizeQuality;fill-rule:evenodd;clip-rule:evenodd" viewBox="0 0 6.827 6.827"><defs><style>.fil1{fill:#fffffe;fill-rule:nonzero}</style></defs><path style="fill:#424242" d="M0 0h6.827v6.827H0z"/><g id="Layer_x0020_1"><path class="fil1" d="M3.517 1.37c.09.38.175.6.295.91l.087.226h.66c.11-.228.196-.415.268-.594.068-.173.125-.343.176-.54-.283-.188-.536-.278-.776-.275-.238.002-.469.095-.71.273zm.097.987a6.258 6.258 0 0 1-.319-1 .107.107 0 0 1 .037-.114c.298-.233.588-.355.893-.359.302-.003.612.111.955.352.04.023.06.07.049.117l-.104-.026.103.026a4.862 4.862 0 0 1-.204.637c-.08.203-.176.408-.299.662a.107.107 0 0 1-.099.068h-.798a.107.107 0 0 1-.102-.07l.1-.037-.1.037-.112-.293zM1.821 2.405c.068.282.132.448.223.683l.061.158h.477c.08-.17.145-.31.198-.442.05-.128.092-.253.13-.396-.207-.136-.393-.2-.57-.199-.172.002-.342.069-.519.196zm.025.76c-.1-.26-.17-.44-.247-.772a.107.107 0 0 1 .037-.115c.234-.183.462-.279.703-.281.238-.003.48.086.75.274.038.023.059.07.047.117l-.103-.026.103.026a3.77 3.77 0 0 1-.158.494 7.732 7.732 0 0 1-.23.51.107.107 0 0 1-.1.067h-.614a.107.107 0 0 1-.102-.069l.1-.037-.1.037-.086-.225z"/><path class="fil1" d="M4.617 1.067a.106.106 0 0 0-.211-.026l-.08.62a.106.106 0 0 0 .211.026l.08-.62zM2.665 2.165a.106.106 0 0 0-.21-.027l-.062.478a.106.106 0 0 0 .211.026l.061-.477zM3.845 2.506h.766c.059 0 .107.048.107.107v2.84a.488.488 0 0 1-.836.346.488.488 0 0 1-.144-.346v-2.84c0-.059.048-.107.107-.107zm.66.214h-.553v2.733a.275.275 0 0 0 .471.195c.05-.05.081-.119.081-.195V2.72zM2.047 3.246h.59c.059 0 .106.048.106.107V5.54a.4.4 0 0 1-.685.284.4.4 0 0 1-.118-.284V3.353c0-.06.048-.107.107-.107zm.483.213h-.377v2.082a.188.188 0 0 0 .322.133.188.188 0 0 0 .055-.133V3.459z"/><path class="fil1" d="M3.845 3.17a.107.107 0 0 0 0 .213h.766a.107.107 0 0 0 0-.214h-.766zM2.047 3.757a.107.107 0 0 0 0 .213h.59a.107.107 0 0 0 0-.213h-.59z"/><path style="fill:none" d="M0 0h6.827v6.827H0z"/></g></svg>